<svg width="13" height="13" viewBox="0 0 13 13" fill="none" xmlns="http://www.w3.org/2000/svg">
<g clip-path="url(#clip0_271_451)">
<path d="M12.1188 3.68246C12.0886 3.00384 11.9733 2.63341 11.8773 2.38827C11.7645 2.08554 11.5862 1.81311 11.3527 1.58681C11.1276 1.35532 10.8501 1.17816 10.5453 1.06651C10.2982 0.971241 9.92738 0.856863 9.24101 0.826835C8.5021 0.794078 8.27982 0.785889 6.40145 0.785889C4.52583 0.785889 4.30328 0.794078 3.56189 0.826835C2.87827 0.856863 2.50469 0.971241 2.25738 1.06651C1.95257 1.17816 1.67802 1.35532 1.45024 1.58681C1.21393 1.81038 1.03539 2.08554 0.922876 2.38827C0.826592 2.63341 0.711326 3.00138 0.68134 3.68246C0.648054 4.41541 0.640076 4.63898 0.640076 6.50015C0.640076 8.36132 0.648054 8.58216 0.68134 9.31783C0.711326 9.99619 0.826592 10.3669 0.922876 10.6123C1.03539 10.9145 1.21393 11.1872 1.44749 11.4132C1.67252 11.645 1.94982 11.8221 2.25463 11.9338C2.50194 12.0291 2.8725 12.1437 3.55914 12.1735C4.29778 12.2062 4.52308 12.2144 6.3987 12.2144C8.27432 12.2144 8.4966 12.2062 9.23826 12.1735C9.92188 12.1437 10.2955 12.0291 10.5425 11.9338C11.1549 11.6993 11.641 11.2172 11.8773 10.6093C11.9733 10.3642 12.0886 9.99619 12.1188 9.31511C12.1518 8.57943 12.1601 8.36132 12.1601 6.50015C12.1601 4.63898 12.1518 4.41814 12.1188 3.68246ZM6.39595 10.0781C4.40231 10.0781 2.78474 8.47297 2.78474 6.49469C2.78474 4.51641 4.40231 2.9113 6.39595 2.9113C8.38958 2.9113 10.0072 4.51641 10.0072 6.49469C10.0072 8.47297 8.38958 10.0781 6.39595 10.0781ZM10.1499 3.6063C9.68419 3.6063 9.30676 3.2315 9.30676 2.76962C9.30676 2.30747 9.68419 1.93322 10.1499 1.93322C10.6154 1.93322 10.9931 2.30747 10.9931 2.76962C10.9931 3.2315 10.6154 3.6063 10.1499 3.6063Z" fill="#352958"/>
<path d="M8.05201 8.13841C8.96679 7.23067 8.96679 5.75895 8.05201 4.85122C7.13723 3.94349 5.65408 3.94349 4.7393 4.85122C3.82452 5.75895 3.82452 7.23067 4.7393 8.13841C5.65408 9.04614 7.13723 9.04614 8.05201 8.13841Z" fill="#352958"/>
</g>
<defs>
<clipPath id="clip0_271_451">
<rect width="11.52" height="11.4285" fill="white" transform="translate(0.640076 0.785889)"/>
</clipPath>
</defs>
</svg>
