<svg width="15" height="9" viewBox="0 0 15 9" fill="none" xmlns="http://www.w3.org/2000/svg">
<path fill-rule="evenodd" clip-rule="evenodd" d="M12.7932 5.59818C13.2708 6.06084 13.775 6.49613 14.2034 7.00544C14.3926 7.23177 14.5718 7.46533 14.7089 7.72798C14.9031 8.10137 14.7272 8.51225 14.3897 8.53455L12.2919 8.53361C11.7508 8.57815 11.3192 8.36205 10.9563 7.99505C10.6658 7.70156 10.3968 7.3892 10.1175 7.0858C10.003 6.96179 9.88321 6.8451 9.74004 6.75287C9.45366 6.56846 9.20508 6.62492 9.04142 6.92124C8.87474 7.22262 8.83694 7.55634 8.82057 7.89222C8.79809 8.38228 8.64878 8.51112 8.15256 8.53356C7.0921 8.58317 6.08568 8.42401 5.15074 7.8933C4.32646 7.42543 3.68727 6.76494 3.13092 6.01719C2.0477 4.56116 1.21818 2.96123 0.472627 1.31647C0.30481 0.945906 0.427538 0.746988 0.839677 0.739947C1.52405 0.726758 2.20833 0.727697 2.89351 0.739009C3.17166 0.743045 3.3558 0.901316 3.4632 1.162C3.83346 2.06521 4.28653 2.92452 4.85522 3.72104C5.00667 3.9331 5.1611 4.14516 5.381 4.29442C5.62428 4.45968 5.80951 4.40491 5.92396 4.13606C5.99659 3.96558 6.02838 3.78197 6.04475 3.59938C6.09897 2.97123 6.10611 2.34415 6.01102 1.7182C5.95263 1.32755 5.73083 1.07465 5.3379 1.00073C5.13739 0.963038 5.16725 0.889019 5.26433 0.775479C5.43295 0.579659 5.59155 0.457764 5.90769 0.457764H8.27856C8.65181 0.530844 8.7347 0.697188 8.78579 1.06977L8.78783 3.68241C8.78376 3.82665 8.86045 4.25466 9.12233 4.35013C9.33192 4.4181 9.47007 4.25175 9.59583 4.11991C10.1635 3.52222 10.5686 2.81587 10.9306 2.08445C11.0912 1.76284 11.2293 1.42884 11.3631 1.09512C11.4623 0.84748 11.6179 0.725632 11.8991 0.731029L14.1809 0.733048C14.2486 0.733048 14.317 0.734033 14.3826 0.745157C14.7671 0.810165 14.8724 0.974256 14.7537 1.34675C14.5666 1.93116 14.2025 2.41817 13.8465 2.90744C13.466 3.4298 13.059 3.93427 12.6816 4.45973C12.3349 4.93957 12.3625 5.18143 12.7932 5.59818Z" fill="#352958"/>
</svg>
